<?xml version="1.0" standalone="no"?>
<!DOCTYPE svg PUBLIC "-//W3C//DTD SVG 20010904//EN"
 "http://www.w3.org/TR/2001/REC-SVG-20010904/DTD/svg10.dtd">
<svg version="1.0" xmlns="http://www.w3.org/2000/svg"
 width="354.000000pt" height="154.000000pt" viewBox="0 0 354.000000 154.000000"
 preserveAspectRatio="xMidYMid meet">

<g transform="translate(0.000000,154.000000) scale(0.100000,-0.100000)"
fill="#000000" stroke="none">
<path d="M2404 1469 c-6 -8 -26 -52 -44 -99 -56 -143 -160 -380 -211 -482 -46
-93 -50 -97 -86 -104 -145 -25 -380 -86 -481 -124 -80 -31 -191 -88 -243 -126
-26 -19 -50 -34 -54 -34 -9 0 1 58 32 193 23 98 25 132 7 114 -4 -3 -22 -68
-40 -144 -29 -116 -38 -141 -62 -160 -38 -31 -45 -29 -37 17 9 53 -6 52 -44
-3 -16 -24 -37 -49 -46 -57 -15 -12 -16 -9 -9 38 9 68 -10 69 -26 1 -11 -43
-10 -53 2 -66 14 -13 19 -11 51 16 21 19 38 27 42 21 10 -17 51 -11 70 10 10
11 21 20 25 20 17 0 19 -33 4 -56 -24 -36 -23 -97 2 -131 50 -67 184 -103 304
-83 183 31 350 176 502 437 62 106 79 123 121 123 l24 0 -24 -102 c-28 -126
-28 -221 1 -226 15 -3 17 0 10 14 -4 11 -7 44 -6 74 3 57 39 229 51 243 6 6
158 37 183 37 4 0 3 -11 -2 -25 -6 -16 -6 -25 0 -25 11 0 29 30 27 45 -2 9
313 57 322 49 6 -6 -20 -97 -36 -121 -17 -28 -43 -30 -43 -3 0 27 -9 25 -47
-12 -37 -35 -44 -22 -13 22 12 17 32 30 48 32 24 4 25 5 8 13 -28 12 -67 -13
-94 -63 -20 -35 -28 -42 -55 -42 l-31 0 37 38 c20 21 37 46 37 55 0 21 -33 22
-75 2 l-30 -15 38 5 c45 7 47 -2 7 -40 -16 -16 -30 -25 -30 -21 0 4 -14 -4
-31 -18 -42 -36 -53 -33 -45 9 9 49 -10 45 -25 -5 -11 -37 -15 -40 -47 -40
l-34 0 36 40 c20 23 34 45 31 50 -12 20 -95 9 -95 -12 0 -6 7 -7 15 -4 8 3 22
9 30 12 32 13 13 -26 -30 -63 -25 -20 -45 -41 -45 -46 0 -4 15 -5 33 -2 17 2
58 7 91 10 32 3 64 9 70 14 7 6 50 13 97 17 63 5 89 11 105 26 14 12 24 16 28
9 4 -6 22 -10 41 -9 30 1 39 7 59 42 13 23 33 50 45 60 21 19 21 19 21 -18 0
-23 5 -39 15 -42 16 -7 85 32 85 47 0 11 -35 -6 -45 -21 -13 -20 -24 -9 -27
28 -2 29 -8 38 -24 40 -11 2 -27 -4 -34 -13 -26 -31 -27 -13 -4 60 13 41 27
94 30 118 10 64 -12 35 -36 -48 -11 -37 -21 -69 -22 -70 -2 -1 -109 -16 -238
-34 -129 -18 -247 -35 -262 -38 -20 -4 -28 -1 -28 9 0 13 97 367 151 555 22
73 23 108 3 82z m-146 -499 l-43 -154 -34 -8 c-18 -5 -35 -7 -38 -5 -2 3 16
45 40 93 24 49 59 124 77 167 19 44 36 75 37 70 2 -4 -16 -78 -39 -163z m-198
-257 c-119 -214 -254 -364 -385 -429 -75 -37 -83 -39 -175 -39 -82 0 -102 4
-145 26 -64 33 -99 81 -91 129 4 27 21 49 68 93 104 95 259 164 508 225 270
66 260 67 220 -5z"/>
<path d="M1346 1140 c-118 -21 -216 -67 -323 -152 -115 -91 -246 -251 -329
-404 -25 -47 -48 -84 -49 -82 -2 2 10 93 26 203 16 110 28 214 27 230 -4 41
-27 38 -52 -5 -27 -46 -305 -724 -300 -729 12 -13 40 42 119 234 152 368 187
450 192 455 18 16 -69 -553 -94 -617 -4 -10 -1 -14 11 -12 11 3 26 29 42 77
25 76 107 246 152 316 141 221 329 388 502 447 82 28 229 31 308 6 39 -12 52
-13 49 -4 -9 28 -194 53 -281 37z"/>
<path d="M3067 834 c-4 -4 -7 -16 -7 -26 0 -13 7 -18 26 -18 21 0 25 4 22 22
-3 23 -27 35 -41 22z"/>
<path d="M944 496 c-11 -22 -29 -46 -41 -54 -23 -14 -23 -14 -23 27 0 22 -4
41 -9 41 -6 0 -26 -25 -46 -55 -36 -54 -61 -72 -51 -37 16 58 18 84 5 80 -16
-5 -27 -39 -28 -85 -1 -27 3 -33 19 -33 12 0 32 12 45 26 20 21 26 23 43 13
12 -7 27 -9 38 -4 11 4 26 7 35 6 10 -1 21 10 28 28 16 38 62 81 68 63 6 -15
23 -6 23 13 0 10 -13 13 -44 12 -40 -2 -45 -5 -62 -41z"/>
</g>
</svg>
